<?xml version="1.0" encoding="utf-8"?>
<svg xmlns="http://www.w3.org/2000/svg">
<symbol id="bottom" viewBox="0 -16 512 512"><path d="m410.667969 245.332031h-160c-8.832031 0-16-7.167969-16-16s7.167969-16 16-16h160c8.832031 0 16 7.167969 16 16s-7.167969 16-16 16zm0 0"/><path d="m496 138.667969h-245.332031c-8.832031 0-16-7.167969-16-16s7.167969-16 16-16h245.332031c8.832031 0 16 7.167969 16 16s-7.167969 16-16 16zm0 0"/><path d="m410.667969 32h-160c-8.832031 0-16-7.167969-16-16s7.167969-16 16-16h160c8.832031 0 16 7.167969 16 16s-7.167969 16-16 16zm0 0"/><path d="m474.667969 448h-202.667969c-20.585938 0-37.332031-16.746094-37.332031-37.332031v-53.335938c0-20.585937 16.746093-37.332031 37.332031-37.332031h202.667969c20.585937 0 37.332031 16.746094 37.332031 37.332031v53.335938c0 20.585937-16.746094 37.332031-37.332031 37.332031zm-202.667969-96c-2.945312 0-5.332031 2.390625-5.332031 5.332031v53.335938c0 2.941406 2.386719 5.332031 5.332031 5.332031h202.667969c2.941406 0 5.332031-2.390625 5.332031-5.332031v-53.335938c0-2.941406-2.390625-5.332031-5.332031-5.332031zm0 0"/><path d="m176 400h-160c-8.832031 0-16-7.167969-16-16s7.167969-16 16-16h160c8.832031 0 16 7.167969 16 16s-7.167969 16-16 16zm0 0"/><path d="m96 480c-4.097656 0-8.191406-1.558594-11.308594-4.691406-6.25-6.253906-6.25-16.386719 0-22.636719l68.675782-68.671875-68.695313-68.691406c-6.25-6.253906-6.25-16.386719 0-22.636719s16.382813-6.25 22.636719 0l80 80c6.25 6.25 6.25 16.382813 0 22.636719l-80 80c-3.117188 3.132812-7.210938 4.691406-11.308594 4.691406zm0 0"/>
</symbol></svg>